<svg id="Capa_1" enable-background="new 0 0 512 512" height="512" viewBox="0 0 512 512" width="512" xmlns="http://www.w3.org/2000/svg"><g><path d="m228.372 188.181-6.822-3.938c-18.491-10.676-33.909-26.094-44.586-44.587-2.07-3.588-6.659-4.815-10.245-2.745-3.587 2.071-4.816 6.658-2.745 10.245 11.676 20.224 28.399 37.173 48.443 49.119l-11.077 11.077c-14.32 14.321-32.23 24.662-51.794 29.904-4.001 1.071-6.375 5.185-5.303 9.186 1.074 4.01 5.197 6.375 9.186 5.303 22.103-5.922 42.338-17.605 58.519-33.785l17.979-17.979c3.484-3.488 2.713-9.338-1.555-11.8z"/><path d="m128.193 148.7-50.493 13.53c-4.001 1.072-6.375 5.185-5.303 9.186 1.074 4.01 5.197 6.375 9.186 5.303l50.493-13.53c4.001-1.072 6.375-5.185 5.303-9.186s-5.184-6.379-9.186-5.303z"/><path d="m132.075 202.19-50.493-13.529c-4.003-1.076-8.114 1.302-9.186 5.303s1.302 8.114 5.303 9.186l50.493 13.529c3.993 1.073 8.113-1.297 9.186-5.303 1.072-4.001-1.302-8.114-5.303-9.186z"/><path d="m459.932 202.793c9.681 5.591 21.946 2.201 27.466-7.359 5.542-9.601 2.241-21.922-7.359-27.465l-39.398-22.747c-9.601-5.542-21.923-2.241-27.465 7.359-5.543 9.602-2.242 21.922 7.358 27.466l1.548.894-5.959 10.322-11.592-6.692c-9.623-5.557-21.909-2.265-27.466 7.359-5.543 9.602-2.241 21.922 7.359 27.466l2.666 1.539c-.169.293-13.226 22.907-15.26 26.431-2.071 3.587-.842 8.174 2.745 10.245 3.583 2.067 8.172.847 10.245-2.745l2.305-3.992c.615.474 1.266.911 1.95 1.306l24.119 13.926c.687.396 1.391.74 2.105 1.033l-5.185 8.981-9.888-5.709c-3.59-2.07-8.176-.844-10.245 2.745-2.071 3.587-.842 8.174 2.745 10.245l9.888 5.709-5.106 8.844-2.027-1.171c-3.586-2.071-8.174-.843-10.245 2.745-2.071 3.587-.842 8.174 2.745 10.245l2.027 1.171-5.106 8.844-9.888-5.709c-3.586-2.071-8.175-.843-10.245 2.745-2.071 3.587-.842 8.174 2.745 10.245l9.888 5.709-5.106 8.844-28.174-16.266 22.685-39.291c2.071-3.587.842-8.174-2.745-10.245-3.589-2.071-8.175-.843-10.245 2.745l-24.04 41.64c-3.17 5.488-1.626 12.386 3.351 16.037l-7.624 13.204c-2.912 5.044-1.175 11.469 3.85 14.367l2.016 1.164-11.263 19.508-20.427-35.38c4.995-2.924 8.357-8.347 8.357-14.54v-43.605c0-7.792-5.321-14.365-12.521-16.275v-133.897c0-36.311-18.496-69.344-49.479-88.362-.552-.34-.896-.999-.896-1.722v-4.893c.001-25.26-20.55-45.811-45.811-45.811h-16.062c-4.137 0-7.629 2.812-8.666 6.625-5.787-4.167-12.883-6.625-20.543-6.625-4.951 0-8.979 4.028-8.979 8.979v31.559c-26.52 8.186-47.085 30.584-52.125 59.165-1.448 8.214-8.467 14.163-16.717 14.163h-10.988c-2.281-1.64-5.077-2.606-8.095-2.606h-11.13c-13.295 0-24.111 10.816-24.111 24.111v13.517c0 2.859.868 5.52 2.354 7.732-.631 3.285-.95 6.635-.95 10.004v10.809c0 44.879 36.512 81.391 81.391 81.391 10.155 0 18.779 6.672 21.721 15.863-7.195 1.914-12.512 8.484-12.512 16.273v21.357c-9.299 6.392-15.408 17.104-15.408 29.216 0 16.964 11.983 31.18 27.929 34.63v34.046c0 4.143 3.357 7.5 7.5 7.5s7.5-3.357 7.5-7.5v-34.046c12.728-2.754 22.931-12.368 26.531-24.762h115.717l27.761 48.084-10.48 18.151c-2.071 3.587-.842 8.174 2.745 10.245 3.583 2.067 8.172.847 10.245-2.745l6.15-10.652 47.639 82.516h-226.31v-51.791c0-4.143-3.357-7.5-7.5-7.5s-7.5 3.357-7.5 7.5v52.021c0 8.144 6.626 14.77 14.77 14.77h226.94c11.364 0 18.481-12.297 12.79-22.154l-52.17-90.362 15.593-27.008 2.015 1.163c5.072 2.927 11.483 1.15 14.367-3.85l7.624-13.204c5.594 2.459 12.365.426 15.565-5.115 7.397-12.813 44.34-76.799 57.314-99.271l2.666 1.539c4.658 2.69 10.078 3.396 15.257 2.009 10.732-2.877 17.094-13.89 14.218-24.625-1.391-5.188-4.717-9.523-9.368-12.208l-11.592-6.693 5.959-10.323zm-270.644-186.878c8.224 2.568 14.208 10.255 14.208 19.313v32.605c-8.084-1.566-14.208-8.699-14.208-17.234zm-29.209 0c8.224 2.568 14.209 10.255 14.209 19.313v1.945c-6.703 0-9.634-.087-14.209.357zm-123.166 119.456c0-5.024 4.087-9.111 9.111-9.111h10.03v6.839c0 8.1-6.59 14.689-14.689 14.689h-4.452zm97.025 226.591c-11.265 0-20.429-9.165-20.429-20.43s9.164-20.43 20.429-20.43 20.43 9.165 20.43 20.43-9.166 20.43-20.43 20.43zm-5.021-55.504v-15.499c0-1.013.823-1.836 1.836-1.836h13.216v18.426c-5.039-1.49-10.203-1.782-15.052-1.091zm164.12 28.106c0 1.013-.824 1.836-1.837 1.836-183.76 0-53.371 0-122.204 0-1.125-7.723-4.751-14.646-10.027-19.919v-27.359h59.176c4.143 0 7.5-3.357 7.5-7.5s-3.357-7.5-7.5-7.5h-76.385c-3.489-17.262-18.776-30.3-37.052-30.3-36.608 0-66.391-29.782-66.391-66.391.048-10.047-.123-11.514.193-14.645h2.855c16.371 0 29.689-13.318 29.689-29.689v-4.232h5.202c15.526 0 28.754-11.157 31.469-26.559 5.132-29.099 30.302-50.134 59.749-50.134h6.852c.824 17.222 15.093 30.979 32.515 30.979 6.427 0 11.655-5.229 11.655-11.655v-36.27c0-5.839-1.428-11.35-3.953-16.204 9.309 5.307 15.599 15.326 15.599 26.787v4.893c0 5.899 3.084 11.458 8.049 14.505 26.503 16.27 42.325 44.523 42.325 75.579v133.335h-27.371c-4.143 0-7.5 3.357-7.5 7.5s3.357 7.5 7.5 7.5h38.055c1.013 0 1.837.823 1.837 1.836zm56.956 23.844-9.256-5.345 5.344-9.257 9.257 5.344zm73.899-106.152c-.646 1.117-2.082 1.502-3.198.857l-24.118-13.925c-1.118-.645-1.503-2.079-.858-3.197l4.363-7.557 28.174 16.266zm32.625-20.351c2.442 1.409 3.281 4.529 1.868 6.975-1.408 2.442-4.53 3.281-6.975 1.869-24.953-14.406 44.237 25.539-59.486-34.344-2.438-1.408-3.276-4.537-1.869-6.976 1.409-2.441 4.527-3.282 6.976-1.869 19.022 10.983 41.257 23.821 59.486 34.345zm-27.405-33.142 5.959-10.322 10.322 5.959-5.959 10.323zm-1.079-31.706c-2.438-1.407-3.276-4.537-1.868-6.976 1.405-2.435 4.534-3.278 6.975-1.869l39.398 22.747c2.438 1.408 3.276 4.537 1.869 6.976-1.406 2.438-4.536 3.276-6.976 1.868-14.535-8.392-28.728-16.586-39.398-22.746z"/></g></svg>