<?xml version="1.0" encoding="utf-8"?>
<!-- Generator: Adobe Illustrator 24.2.3, SVG Export Plug-In . SVG Version: 6.00 Build 0)  -->
<svg version="1.1" xmlns="http://www.w3.org/2000/svg" xmlns:xlink="http://www.w3.org/1999/xlink" x="0px" y="0px"
	 viewBox="0 0 1366 768" style="enable-background:new 0 0 1366 768;" xml:space="preserve">
<style type="text/css">
	.st0{fill:#012610;}
	.st1{fill:#007330;}
</style>
<g id="Layer_2">
	<rect x="-2" class="st0" width="1368" height="768"/>
</g>
<g id="Layer_1">
	<g>
		
			<rect x="585.31" y="108.61" transform="matrix(0.2022 -0.9793 0.9793 0.2022 386.082 723.2764)" class="st1" width="103.31" height="32.13"/>
		<circle class="st1" cx="665.22" cy="78.67" r="21.48"/>
		<circle class="st1" cx="629.24" cy="71.24" r="21.48"/>
		<circle id="XMLID_6_" class="st1" cx="608.78" cy="170.33" r="21.48"/>
		<circle class="st1" cx="644.76" cy="177.76" r="21.48"/>
	</g>
	<g>
		
			<rect x="1086.58" y="593.2" transform="matrix(0.9574 -0.2888 0.2888 0.9574 -128.3262 360.2699)" class="st1" width="140.69" height="43.76"/>
		<circle class="st1" cx="1230.34" cy="619.07" r="29.25"/>
		<circle class="st1" cx="1215.89" cy="571.16" r="29.25"/>
		<circle id="XMLID_5_" class="st1" cx="1083.97" cy="610.95" r="29.25"/>
		<circle class="st1" cx="1098.42" cy="658.86" r="29.25"/>
	</g>
	<g>
		
			<rect x="124.45" y="628.96" transform="matrix(0.7388 0.6739 -0.6739 0.7388 485.4763 43.7797)" class="st1" width="123.61" height="38.44"/>
		<circle class="st1" cx="216.32" cy="705.36" r="25.7"/>
		<circle class="st1" cx="245.95" cy="672.88" r="25.7"/>
		<circle id="XMLID_7_" class="st1" cx="156.51" cy="591.29" r="25.7"/>
		<circle class="st1" cx="126.88" cy="623.77" r="25.7"/>
	</g>
	<g>
		
			<rect x="281.43" y="361.59" transform="matrix(-0.4612 -0.8873 0.8873 -0.4612 151.5998 847.3734)" class="st1" width="103.31" height="32.13"/>
		<circle class="st1" cx="325.97" cy="324.14" r="21.48"/>
		<circle class="st1" cx="293.37" cy="341.08" r="21.48"/>
		<circle id="XMLID_4_" class="st1" cx="340.03" cy="430.86" r="21.48"/>
		<circle class="st1" cx="372.63" cy="413.92" r="21.48"/>
	</g>
	<g>
		
			<rect x="751.67" y="549.66" transform="matrix(0.3571 -0.9341 0.9341 0.3571 -11.9799 1114.036)" class="st1" width="103.31" height="32.13"/>
		<circle class="st1" cx="838.61" cy="524.86" r="21.48"/>
		<circle class="st1" cx="804.29" cy="511.74" r="21.48"/>
		<circle id="XMLID_3_" class="st1" cx="768.16" cy="606.25" r="21.48"/>
		<circle class="st1" cx="802.48" cy="619.37" r="21.48"/>
	</g>
	<g>
		
			<rect x="1009.78" y="205.98" transform="matrix(0.8431 0.5378 -0.5378 0.8431 297.7701 -553.7653)" class="st1" width="175.92" height="54.71"/>
		<circle class="st1" cx="1153.8" cy="306.21" r="36.57"/>
		<circle class="st1" cx="1187.45" cy="253.46" r="36.57"/>
		<circle id="XMLID_2_" class="st1" cx="1042.2" cy="160.79" r="36.57"/>
		<circle class="st1" cx="1008.55" cy="213.54" r="36.57"/>
	</g>
	<g>
		
			<rect x="51.08" y="100.83" transform="matrix(0.7551 -0.6556 0.6556 0.7551 -49.9898 122.5356)" class="st1" width="175.92" height="54.71"/>
		<circle class="st1" cx="224.83" cy="95.14" r="36.57"/>
		<circle class="st1" cx="183.81" cy="47.89" r="36.57"/>
		<circle id="XMLID_1_" class="st1" cx="53.71" cy="160.84" r="36.57"/>
		<circle class="st1" cx="94.72" cy="208.09" r="36.57"/>
	</g>
</g>
</svg>
